# https://github.com/mikedh/trimesh
v -0.32199079 -0.19449975 0.44597766
v -0.22683695 -0.29418936 0.39483440
v -0.31245288 -0.19846061 0.44850552
v 0.15742373 -0.20495698 -0.51274854
v -0.42658070 -0.31673408 0.11718485
v -0.20671296 0.08237328 -0.49387118
v 0.47002801 -0.27705988 -0.06275553
v 0.21694934 -0.16496626 -0.51539147
v -0.37372884 -0.04565874 -0.42937455
v 0.34702450 -0.35093048 0.00867068
v -0.54980981 0.28003746 -0.03558770
v 0.37668499 -0.24249101 -0.33582631
v 0.10099860 0.26514331 -0.44492623
v 0.31032309 -0.31436527 -0.31467471
v -0.48908356 -0.26720423 -0.04481734
v -0.34480599 -0.20178135 0.42588571
v -0.61581153 -0.14264074 -0.01171160
v -0.00958283 -0.07279886 -0.57177937
v -0.29330239 -0.36285114 -0.21437792
v 0.90325713 0.31222466 0.01435008
v -0.38974884 -0.04219887 -0.41699961
v 0.09015918 0.16470641 -0.49898687
v -0.14494619 0.23665068 -0.43977916
v 0.17001019 -0.25067517 -0.47594357
v 0.35685572 -0.35461316 -0.14274499
v -0.25667551 -0.32650852 -0.31748572
v 0.01299755 0.27675426 0.44501546
v -0.44173300 -0.05103425 -0.37422767
v -0.10861712 -0.10253006 -0.56419438
v 0.16280641 -0.19494826 -0.51697743
v -0.27121624 0.32471594 0.28497854
v 0.22739990 -0.35612702 -0.32071763
v -0.06787941 -0.33499250 0.38599494
v 0.15945283 -0.21319368 -0.50766623
v -0.31220111 0.08797237 0.41139919
v 0.27310491 -0.13146619 -0.48674640
v -0.41890314 -0.32855496 -0.06060658
v -0.42667136 0.02215354 0.34038061
v -0.19997603 0.17335260 -0.45778629
v -0.06708881 -0.33815530 0.37805656
v -0.06135329 0.15047695 -0.50644231
v -0.03941165 -0.15239766 -0.57871521
v 0.03677286 -0.23581380 -0.51305908
v -0.00151104 0.02587983 0.53868490
v -0.27414948 -0.36835399 -0.15752269
v -0.08395306 -0.04104890 0.54030198
v -0.13147216 0.23639020 -0.44470569
v 0.29711911 -0.23853141 0.40379778
v -0.11972187 -0.32259175 0.38935146
v -0.68095589 -0.06542924 -0.00635106
v -0.25527558 0.02941092 -0.48756853
v 0.09663933 0.04594236 -0.53728515
v 0.43227085 -0.27905396 -0.21343496
v -0.09474228 -0.32958308 0.38727573
v 0.01590793 -0.07780817 -0.57296431
v 0.03396994 0.10091224 -0.52573454
v -0.04461244 -0.16114464 -0.57799333
v -0.41120210 -0.18181416 0.37693521
v 0.34010038 -0.35196039 0.01623726
v 0.28922674 -0.16839072 -0.47137639
v 0.14738123 -0.16213912 -0.53363276
v -0.05200871 0.32689855 -0.37909481
v -0.36022964 -0.23207971 0.38706696
v 0.17334552 0.17751914 -0.47107214
v 0.01543054 0.30596837 0.42278692
v 0.07202159 -0.36308834 0.25527465
v -0.19679371 0.00056099 -0.52664721
v -0.33258662 0.19091901 0.34895134
v 0.38222432 -0.32561731 0.05016667
v 0.17396782 -0.01225894 -0.52514303
v -0.02551685 0.32815382 0.37736312
v 0.09324986 -0.34674761 -0.34795994
v 0.15025638 -0.13906699 0.53900915
v -0.36367911 -0.12820914 0.42860600
v 0.27205807 -0.35419169 -0.28892571
v -0.42115399 -0.30473351 -0.13526754
v -0.06043170 -0.05919041 -0.56546074
v -0.36160654 0.01677613 -0.42099699
v -0.18271779 0.09485790 -0.50125360
v -0.12593725 0.31078452 0.39579162
v -0.41642174 -0.06918658 0.37965295
v -0.04538400 -0.05566948 -0.56588751
v 0.32808566 -0.24908814 -0.37944621
v -0.00677881 -0.09642072 -0.57509643
v 0.20428661 -0.30739295 -0.41241279
v -0.42659229 0.00137110 -0.37088963
v 0.28779605 -0.25615400 -0.40934590
v -0.37108451 -0.30285344 0.28149605
v -0.35736769 0.00807493 -0.42657769
v 0.03607281 -0.26130152 -0.49483523
v -0.08016922 -0.35187629 -0.31607071
v -0.19342074 0.10543850 0.47244510
v -0.42630282 -0.04558033 -0.38771889
v -0.19896585 -0.34851193 -0.31351516
v 0.63621688 -0.11858863 -0.01892850
v 0.29565844 -0.20573446 0.43889412
v -0.20428498 0.33363524 0.32481945
v -0.33476919 -0.30296746 0.31106830
v -0.52406836 -0.16987665 -0.21314003
v -0.40691370 -0.04074472 -0.40349698
v -0.41374660 0.00531962 -0.38255793
v 0.24594299 -0.36629274 -0.26635197
v -0.45800173 -0.24212493 -0.23201387
v 0.02431183 -0.01601226 -0.56095791
v -0.21751679 0.24776524 -0.38660559
v 0.12770031 -0.37415448 0.12159145
v 0.05215660 0.05513953 -0.54235554
v 0.17402451 -0.11701694 0.53876865
v 0.67484212 -0.07401478 0.05066505
v -0.17406236 -0.00845806 -0.53696144
v -0.28433812 0.01645404 -0.47406325
v 0.20799008 -0.19255847 -0.50697386
v -0.10752676 0.19492584 -0.47528681
v 0.06313255 0.27738202 -0.43913010
v 0.31203005 -0.05531482 0.46680039
v -0.47150627 -0.15554258 0.29686674
v -0.10965071 -0.25473639 0.48082396
v -0.02848472 -0.31442899 0.42679030
v -0.21275727 0.33324221 0.31954965
v -0.37915161 -0.34783885 0.07153369
v -0.40868133 0.01291550 -0.38364094
v -0.04447329 -0.12095734 -0.57588208
v -0.11617862 -0.03892313 -0.55357260
v -0.12755877 0.25354877 -0.43409532
v 0.53594917 -0.21091962 0.02218985
v -0.25465518 -0.10249972 -0.52346903
v 0.16543691 0.00967802 -0.52384657
v -0.53037947 -0.17672661 -0.18523201
v -0.38977039 -0.19331050 0.39404249
v -0.47866836 -0.27828246 0.00205274
v 0.16831724 0.21414950 -0.45379364
v -0.40017739 -0.19498390 0.38329330
v 0.31318924 -0.36788061 -0.16861272
v 0.13139935 0.24176630 -0.45353594
v 0.34111583 -0.17858911 -0.42705685
v 0.20977356 -0.35310268 -0.34392622
v -0.07573926 0.19767198 -0.48092028
v 0.41196635 -0.31583557 -0.17162307
v 0.05367848 -0.34635082 0.36817622
v -0.21431965 0.05414704 0.48272195
v 0.23175626 -0.16064833 -0.50939012
v -0.23170392 0.17514175 0.42948568
v 0.88300085 0.28765047 -0.02029363
v 0.20867583 -0.32418957 -0.39203992
v 0.37196717 -0.19203049 0.38420001
v 0.28827447 -0.17059770 0.46447885
v -0.42960268 -0.28378889 -0.18426135
v 0.27220246 -0.35095525 -0.29789951
v 0.05921295 -0.20550326 0.51890349
v -0.01072169 0.01150943 -0.55274826
v 0.25465873 -0.36881748 -0.24146448
v -0.20893143 -0.19971246 -0.53492528
v -0.13842700 0.32825205 -0.33108434
v 0.13248615 -0.23296762 0.48412368
v -0.36895755 0.19435257 -0.30503771
v 0.32472643 -0.33990803 -0.25602847
v -0.21408907 -0.36616114 0.01487244
v -0.03048870 -0.28267676 0.45536783
v -0.18883049 0.01768551 0.50193441
v 0.29246545 -0.28598967 0.33193895
v 0.19552748 -0.34855881 0.27123415
v -0.01368599 -0.36290845 0.27419576
v -0.08526530 0.28439704 0.42953840
v 0.43650368 -0.19259518 0.31888479
v -0.31706604 0.02033718 -0.45002249
v 0.34615460 -0.10935113 0.44660592
v -0.38667801 -0.34602210 0.07769480
v 0.16683872 0.26148227 0.44468537
v 0.04524557 -0.04512674 -0.56690085
v -0.34469453 0.23054042 0.31360063
v -0.16568141 0.07084468 -0.51585478
v 0.41867608 -0.31577531 -0.13944870
v 0.36697692 -0.33764139 0.03335400
v 0.55522114 -0.19322948 -0.08797425
v 0.21044740 -0.20099714 0.48364103
v 0.37664476 -0.33764154 -0.03591238
v 0.21713568 -0.21261764 -0.49011007
v 0.07736584 -0.20982349 0.51339668
v 0.00447652 -0.36622292 0.23700073
v -0.03688616 0.11556631 -0.51988745
v -0.09152786 0.02082906 0.53088272
v 0.23159099 0.03934499 0.48842892
v -0.30247703 -0.36542711 -0.15693267
v 0.15535595 -0.28279757 0.43990642
v -0.13817446 0.28845808 -0.39788267
v -0.53154087 -0.18615222 -0.16430734
v -0.49421003 -0.26292214 -0.03009604
v 0.07760819 0.11520028 -0.52018672
v 0.00046228 0.28757441 -0.43707445
v -0.18562017 -0.18586427 0.49701014
v -0.46182802 -0.22057579 -0.26276064
v -0.38771805 -0.13888575 -0.41630319
v -0.19117457 0.18175495 -0.45669839
v 0.09702382 -0.34374264 0.37340841
v 0.30329323 -0.18877362 -0.45330381
v -0.02821993 -0.11585371 -0.57625890
v -0.44646868 -0.05434221 -0.36919090
v -0.07231721 -0.08877125 -0.56820476
v 0.40827098 -0.25770763 -0.27814439
v -0.16641517 0.17008598 -0.47129148
v -0.03302269 0.09896891 -0.52597487
v -0.01897030 -0.11200795 -0.57610464
v -0.25593865 -0.11081867 -0.52423632
v 0.20943098 -0.30625919 -0.41207305
v 0.40916356 -0.26240465 0.27039820
v -0.14189309 -0.32932276 0.36545420
v -0.01023767 0.06246747 -0.53833038
v -0.37655082 -0.04570261 -0.42744148
v -0.24109276 -0.10139257 -0.52850914
v 0.34833485 -0.32842690 0.14564703
v -0.36121720 0.03489323 0.39640906
v -0.12748964 0.19245568 -0.47194687
v 0.13463718 -0.29209507 0.43868035
v -0.28034303 0.25305822 0.36106795
v 0.06084819 0.31290424 0.40495169
v 0.00766655 0.30577877 0.42442852
v -0.66635770 -0.08495209 -0.00729216
v 0.13470088 -0.35832673 -0.31265470
v 0.30816510 0.01433065 -0.46438327
v -0.46879688 -0.25276396 -0.18649755
v 0.26953864 -0.21961144 -0.45836869
v -0.26397184 -0.20603111 0.46194866
v -0.16846901 0.12753969 -0.49070749
v -0.43573004 -0.24942890 -0.25840622
v 0.02537420 -0.07252745 0.55786932
v 0.30404255 -0.30710948 0.27485999
v 0.39829147 -0.17603403 -0.38054338
v 0.25645256 -0.22101609 0.44736031
v -0.19030602 0.00347743 0.50467283
v 0.08765122 0.03587389 0.53845108
v 0.09052998 -0.35251653 0.33541900
v -0.02982796 -0.09913647 0.55231011
v -0.09259431 -0.19585890 -0.56252921
v -0.19683763 -0.07809755 -0.53861749
v -0.17484029 -0.27555308 0.44609174
v 0.59294093 -0.15812057 0.02313303
v -0.03704771 -0.00798018 0.54600328
v -0.11683543 0.10221487 0.50069350
v 0.42414442 -0.28034806 0.17538653
v -0.22262175 -0.15844280 -0.53421283
v -0.14528295 0.31200501 -0.36325482
v 0.32462192 -0.36718604 -0.15707423
v -0.35347226 -0.24900173 0.37347269
v -0.24470602 0.09208757 0.45499608
v 0.51622319 -0.22674334 0.02853040
v -0.12713160 0.23843053 -0.44463751
v -0.45451504 -0.28291580 0.16372781
v -0.43761793 -0.23705450 0.27908882
v 0.11837056 0.30184570 0.40770003
v -0.65403861 -0.07246258 0.04108859
v -0.13031669 0.17273371 -0.48126510
v -0.17298357 0.21399522 -0.44521418
v 0.45499918 -0.16888678 0.30916342
v -0.33367419 0.13111593 0.37687019
v 0.02034420 -0.10109155 0.55705702
v -0.14534877 0.22474018 -0.44814733
v -0.74544418 0.04771762 -0.01000623
v 0.18121487 0.14164434 -0.48260531
v -0.07063852 -0.15759593 -0.57540637
v -0.45807254 -0.05591418 -0.35496461
v 0.20277467 -0.19983521 -0.50375348
v -0.26277411 0.14384131 0.42427063
v -0.42943662 -0.18903571 -0.36485651
v 0.17960165 0.28920159 -0.39454105
v 0.36559394 -0.34560132 -0.18311699
v 0.37607703 -0.34365138 -0.14842327
v -0.12653813 0.07159384 -0.52614695
v -0.66973889 -0.07910356 -0.01286289
v 0.32604557 -0.08958159 -0.45287701
v 0.52376747 -0.22102880 -0.10952471
v 0.17018677 0.18562880 -0.46860245
v -0.28347331 -0.35790792 0.10392430
v -0.28825942 -0.15175924 -0.50165415
v -0.41183195 -0.11495693 0.39227489
v -0.21701722 -0.36610779 0.01305224
v 0.33590123 -0.36186525 -0.05293916
v -0.28985003 -0.15897949 -0.49875775
v -0.38637587 -0.04503771 -0.42006493
v -0.10815741 0.32356074 -0.36077508
v 0.37943819 -0.34044895 -0.09864488
v 0.35113493 -0.09128150 -0.43562818
v -0.43175757 -0.31123987 0.12223639
v -0.06945127 -0.12614843 -0.57314140
v -0.09788659 0.00157962 -0.54698139
v -0.12884653 -0.34507677 0.33472967
v -0.52247125 -0.17439310 -0.20999412
v -0.21439545 0.26279423 0.39576182
v 0.20469348 0.16468376 -0.46053246
v -0.00962820 0.13991159 -0.51061249
v 0.22112976 -0.24358183 -0.46402577
v 0.26252708 -0.16588043 -0.49186954
v 0.09375529 -0.34804818 0.35653266
v 0.04008674 0.24905136 -0.45696482
v -0.08728082 0.26736853 -0.43567160
v -0.13782687 -0.12087454 -0.55946451
v -0.30036178 0.26840445 0.33078602
v 0.08836128 0.25772446 0.46233806
v -0.40769124 -0.24066487 -0.31707376
v 0.23312853 0.04259095 -0.49229494
v 0.13376778 0.18506573 -0.48072925
v 0.05845180 -0.13145895 0.54692292
v -0.37559482 -0.18186560 0.41363943
v -0.02654362 -0.27440512 -0.47994027
v -0.74267167 0.11193556 0.00522077
v 0.13875498 -0.09884806 -0.54380029
v -0.33148083 -0.01116739 0.43822739
v -0.11644369 -0.04771403 -0.55558044
v -0.11891854 -0.11880398 -0.56393147
v 0.20290524 -0.32872370 -0.38789758
v 0.47761896 -0.16196312 -0.27899688
v 0.88910395 0.31579140 0.01421077
v -0.19660179 0.31016758 0.37004700
v -0.17990752 0.28648072 0.39617214
v -0.26612374 -0.14782846 -0.51653534
v 0.22880425 -0.10147481 -0.51062810
v 0.10838132 -0.35517618 0.30365285
v 0.05811092 0.06272291 -0.54008967
v -0.03325664 -0.36100087 0.28203991
v -0.52336901 -0.20362559 -0.14758034
v -0.28927431 -0.06413724 0.48219284
v 0.28229114 -0.36611566 -0.23901294
v -0.14365399 -0.11112927 0.53630447
v -0.52000618 -0.16725060 -0.22503813
v 0.37012774 -0.16208719 0.41290429
v -0.09929602 -0.05249991 -0.55942035
v -0.01226442 0.22017112 0.47291663
v -0.25565371 -0.20305835 0.46616122
v 0.20189743 -0.24898586 -0.46888420
v -0.12868461 -0.33142209 -0.36355940
v -0.05156666 0.21134344 -0.47686240
v 0.31627524 -0.36720860 -0.18383047
v 0.39677522 -0.32622626 -0.04824616
v 0.42629501 -0.20268333 -0.32362977
v -0.14228939 -0.13957150 -0.55716622
v -0.45452365 -0.22987217 0.26031435
v 0.47639939 -0.21648493 0.21462663
v -0.17657566 0.20639731 -0.44824681
v 0.43541148 -0.22292419 0.27926579
v 0.71429205 -0.01817006 -0.02717699
v 0.51774281 -0.23056100 -0.01953264
v 0.28517836 0.06034122 0.45092502
v -0.22523426 -0.35534778 0.23863998
v -0.16290231 0.04985866 -0.52315038
v 0.21687244 -0.19329078 -0.50201517
v -0.34062901 -0.35702679 -0.12357110
v -0.43082100 -0.26461050 -0.23190387
v 0.09035860 0.00580290 -0.54998362
v -0.00928355 0.03013977 -0.54811513
v 0.67645776 -0.07458316 -0.03559421
v -0.45290393 -0.29655042 0.09025969
v -0.07265531 0.24488831 0.45274737
v -0.11841510 -0.11442748 -0.56386799
v -0.09457770 -0.01392971 -0.55106902
v -0.31420073 -0.34393179 -0.24368541
v -0.35450757 -0.35016608 0.09093451
v 0.04278179 -0.27933645 -0.47515455
v -0.38958332 -0.20534058 -0.38521662
v 0.11874977 0.04643120 0.53129482
v 0.27438325 -0.21086606 -0.46078026
v -0.37595275 0.02336712 -0.40837184
v 0.24188258 -0.35795921 -0.30403003
v -0.48468822 -0.06660188 -0.32088497
v 0.32359609 -0.23735362 -0.39831054
v 0.16423881 -0.34756374 0.30716321
v -0.13937110 0.22728720 0.44503245
v 0.25986138 -0.30299073 -0.38679501
v -0.49572632 -0.18058747 0.23289071
v -0.25727180 -0.11605734 -0.52416021
v -0.42306080 -0.31286925 0.16042644
v 0.15448874 -0.07110220 -0.54122865
v -0.21985738 -0.36234596 0.14191753
v 0.41805893 -0.16758202 -0.36276558
v 0.17765735 -0.07564087 0.53560853
v 0.24787362 -0.02446802 -0.50042635
v -0.09266239 -0.32786456 0.39056695
v -0.36744377 0.00365483 -0.42052126
v 0.31699714 -0.36709675 -0.18345447
v 0.07246139 -0.34043077 -0.36094925
v -0.03407935 0.04580228 -0.54222393
v -0.41761267 0.30820146 -0.12110068
v 0.39206925 -0.23644945 -0.32640067
v -0.25344354 -0.03079461 -0.50515121
v -0.05563276 0.20193061 -0.48142472
v -0.18441513 -0.36543158 0.07719070
v -0.26141259 -0.36891255 -0.20969191
v 0.36814368 -0.32743993 0.10089214
v 0.18707858 0.28886822 0.40135118
v -0.26479197 -0.16437656 -0.51424849
v -0.10196792 -0.25142613 0.48441932
v 0.01441541 0.47281536 0.04960090
v -0.21428610 -0.35204050 0.27613339
v -0.25971124 -0.35946986 0.12727392
f 390 264 62
f 62 264 189
f 11 390 380
f 20 264 311
f 264 390 311
f 106 371 384
f 20 339 143
f 143 264 20
f 115 341 182
f 20 341 115
f 304 11 155
f 390 11 31
f 11 304 31
f 168 341 20
f 182 341 168
f 168 358 182
f 297 358 168
f 380 390 153
f 153 241 380
f 153 390 62
f 155 39 360
f 105 39 155
f 380 241 105
f 105 11 380
f 155 11 105
f 147 37 220
f 15 17 220
f 220 37 15
f 37 130 15
f 167 37 345
f 345 37 19
f 19 183 345
f 45 272 183
f 194 364 160
f 281 219 143
f 370 8 305
f 143 219 288
f 230 358 297
f 166 324 20
f 20 115 166
f 373 115 182
f 182 358 373
f 358 230 373
f 181 46 237
f 310 143 339
f 372 143 310
f 310 333 372
f 138 265 53
f 266 265 138
f 53 265 156
f 109 339 20
f 386 10 173
f 316 66 106
f 106 161 316
f 316 161 364
f 354 94 19
f 19 37 354
f 134 13 264
f 114 189 264
f 264 13 114
f 114 13 189
f 260 362 257
f 257 197 260
f 86 304 101
f 273 278 368
f 296 31 304
f 20 311 387
f 387 168 20
f 62 241 279
f 279 153 62
f 241 153 279
f 39 111 165
f 165 360 39
f 165 111 78
f 78 360 165
f 121 304 155
f 155 360 121
f 101 304 121
f 121 360 101
f 62 189 294
f 185 105 241
f 185 294 124
f 185 241 62
f 62 294 185
f 39 105 252
f 105 185 252
f 252 185 124
f 257 250 367
f 250 335 367
f 367 116 257
f 335 116 367
f 17 130 350
f 350 130 37
f 187 130 17
f 17 15 187
f 187 15 130
f 183 272 355
f 371 162 342
f 342 162 391
f 342 391 167
f 167 355 342
f 371 45 275
f 392 45 371
f 272 45 392
f 371 342 392
f 392 355 272
f 392 342 355
f 227 143 372
f 227 281 143
f 227 363 195
f 372 333 227
f 36 281 291
f 195 363 221
f 233 43 90
f 233 90 303
f 374 299 219
f 374 315 370
f 219 36 374
f 291 8 141
f 141 36 291
f 141 8 370
f 370 315 141
f 315 374 141
f 141 374 36
f 151 102 321
f 72 94 329
f 237 230 44
f 44 181 237
f 324 166 146
f 108 166 115
f 115 373 108
f 108 146 166
f 73 146 108
f 118 389 117
f 117 389 190
f 274 304 257
f 12 363 381
f 381 227 333
f 363 227 381
f 266 138 172
f 270 138 53
f 7 172 270
f 270 172 138
f 83 363 12
f 386 173 69
f 266 172 280
f 106 66 179
f 66 162 179
f 179 371 106
f 179 162 371
f 231 316 364
f 231 162 66
f 66 316 231
f 210 10 386
f 160 364 226
f 226 205 160
f 364 161 226
f 161 210 226
f 226 210 205
f 386 69 239
f 239 69 7
f 239 210 386
f 205 210 239
f 145 205 164
f 324 145 164
f 164 109 20
f 104 169 18
f 171 267 343
f 343 67 171
f 79 6 39
f 171 67 79
f 67 6 79
f 79 267 171
f 79 251 267
f 51 111 39
f 39 6 51
f 51 6 67
f 51 382 111
f 67 382 51
f 94 354 26
f 37 147 76
f 76 354 37
f 147 354 76
f 209 295 368
f 308 295 352
f 64 288 258
f 219 299 258
f 258 288 219
f 271 288 64
f 143 288 271
f 264 143 131
f 131 134 264
f 143 271 131
f 131 271 134
f 13 134 22
f 94 26 152
f 152 329 94
f 152 233 303
f 303 329 152
f 376 360 78
f 278 273 100
f 273 93 100
f 101 360 100
f 100 93 101
f 97 80 390
f 50 250 257
f 50 335 250
f 128 268 286
f 186 268 128
f 186 286 220
f 128 286 186
f 120 355 167
f 183 355 120
f 167 345 120
f 120 345 183
f 157 384 371
f 371 275 157
f 106 384 157
f 157 45 106
f 157 275 45
f 206 2 391
f 139 194 118
f 118 33 139
f 162 231 139
f 158 389 118
f 158 149 389
f 225 108 373
f 225 373 230
f 225 230 237
f 190 389 322
f 237 46 322
f 322 229 320
f 46 181 322
f 181 229 322
f 322 3 190
f 213 194 160
f 160 184 213
f 118 194 213
f 213 158 118
f 149 158 213
f 184 154 213
f 291 281 60
f 60 195 291
f 219 281 269
f 269 36 219
f 281 36 269
f 291 195 359
f 195 221 359
f 87 221 363
f 90 43 34
f 43 233 34
f 233 152 259
f 259 334 295
f 295 308 259
f 259 308 352
f 303 90 356
f 102 218 136
f 218 91 136
f 72 329 136
f 136 94 72
f 136 91 94
f 48 184 160
f 160 205 48
f 48 205 145
f 235 243 2
f 3 243 235
f 118 117 235
f 190 3 327
f 327 117 190
f 320 274 74
f 257 116 58
f 58 274 257
f 58 116 335
f 244 320 140
f 306 274 320
f 306 262 35
f 320 244 306
f 244 262 306
f 140 320 159
f 320 229 159
f 159 229 181
f 53 156 199
f 199 333 53
f 199 381 333
f 106 242 276
f 276 161 106
f 331 151 321
f 7 69 332
f 332 69 173
f 332 172 7
f 332 280 172
f 10 210 59
f 59 210 161
f 59 276 10
f 161 276 59
f 109 164 336
f 336 239 109
f 205 239 336
f 20 324 253
f 253 164 20
f 324 164 253
f 55 18 169
f 55 305 42
f 55 169 370
f 370 305 55
f 111 382 126
f 126 9 111
f 126 382 67
f 67 209 126
f 251 79 223
f 198 77 122
f 122 77 18
f 42 259 122
f 352 295 110
f 110 209 67
f 67 343 110
f 110 343 267
f 370 169 347
f 189 13 293
f 13 22 293
f 300 258 188
f 188 22 300
f 64 258 300
f 300 271 64
f 134 271 300
f 300 22 134
f 267 201 379
f 317 347 169
f 267 251 41
f 41 201 267
f 314 273 368
f 368 295 240
f 240 314 368
f 152 314 240
f 295 334 240
f 334 259 240
f 240 259 152
f 357 26 354
f 357 152 26
f 368 278 208
f 9 126 208
f 111 9 89
f 78 111 89
f 89 376 78
f 9 208 89
f 278 100 21
f 21 208 278
f 360 376 21
f 21 100 360
f 376 89 21
f 21 89 208
f 28 93 273
f 273 192 28
f 28 192 197
f 28 197 257
f 257 304 28
f 304 86 28
f 28 86 101
f 101 93 28
f 390 31 119
f 119 97 390
f 80 97 312
f 97 119 312
f 31 296 312
f 312 119 31
f 326 230 297
f 181 44 326
f 326 44 230
f 140 159 238
f 238 159 181
f 181 326 238
f 390 80 71
f 71 215 390
f 390 215 249
f 249 311 390
f 249 387 311
f 168 387 249
f 27 326 297
f 124 294 246
f 200 212 251
f 251 223 200
f 200 79 39
f 200 223 79
f 217 268 17
f 217 50 268
f 323 286 99
f 99 286 268
f 268 50 99
f 257 323 99
f 99 50 257
f 319 186 220
f 268 186 319
f 220 17 319
f 17 268 319
f 346 147 220
f 220 224 346
f 346 354 147
f 346 224 354
f 191 286 323
f 285 206 391
f 54 285 33
f 206 285 54
f 194 139 292
f 292 139 231
f 364 194 292
f 292 231 364
f 132 58 335
f 167 391 88
f 88 369 167
f 167 369 5
f 5 37 167
f 5 350 37
f 389 149 255
f 255 322 389
f 73 108 255
f 108 225 255
f 175 154 184
f 175 146 73
f 73 154 175
f 149 213 178
f 178 213 154
f 73 149 178
f 178 154 73
f 281 227 135
f 135 60 281
f 135 227 195
f 195 60 135
f 112 8 291
f 57 259 42
f 233 259 57
f 57 34 233
f 385 91 218
f 385 218 102
f 19 94 385
f 94 91 385
f 102 151 385
f 385 183 19
f 385 45 183
f 106 45 385
f 385 151 106
f 321 102 361
f 378 136 329
f 356 136 378
f 378 329 303
f 303 356 378
f 222 235 117
f 117 327 222
f 3 235 222
f 222 327 3
f 320 74 1
f 1 322 320
f 3 322 1
f 1 16 3
f 170 296 304
f 304 68 170
f 304 274 81
f 274 306 81
f 211 306 35
f 211 81 306
f 266 280 25
f 280 276 25
f 25 276 242
f 25 265 266
f 25 242 265
f 151 331 133
f 133 331 242
f 106 151 133
f 133 242 106
f 321 265 377
f 377 331 321
f 265 242 377
f 242 331 377
f 7 270 174
f 174 95 7
f 339 109 349
f 109 95 349
f 95 174 349
f 349 310 339
f 333 310 349
f 53 333 349
f 349 270 53
f 349 174 270
f 176 332 173
f 280 332 176
f 176 173 10
f 10 276 176
f 176 276 280
f 245 239 7
f 7 125 245
f 245 125 239
f 109 239 236
f 239 125 236
f 236 95 109
f 7 95 236
f 338 164 205
f 205 336 338
f 338 336 164
f 325 77 198
f 198 29 325
f 104 18 82
f 18 77 82
f 18 55 84
f 84 122 18
f 84 55 42
f 283 29 198
f 198 122 283
f 352 29 283
f 283 259 352
f 283 122 259
f 295 209 234
f 234 110 295
f 209 110 234
f 52 258 299
f 188 258 52
f 52 317 188
f 347 317 52
f 127 52 299
f 347 52 127
f 137 246 294
f 137 41 251
f 289 22 188
f 289 41 22
f 41 289 56
f 188 317 56
f 56 289 188
f 273 314 388
f 388 314 152
f 354 224 298
f 298 357 354
f 368 208 203
f 203 208 126
f 203 209 368
f 203 126 209
f 313 163 80
f 80 312 313
f 163 313 365
f 216 71 80
f 215 71 216
f 80 163 216
f 163 27 216
f 216 27 297
f 297 168 216
f 256 212 252
f 256 246 212
f 193 200 39
f 252 212 337
f 212 200 337
f 200 193 337
f 39 252 337
f 337 193 39
f 369 88 247
f 335 50 247
f 50 217 247
f 247 217 17
f 17 350 247
f 220 286 103
f 286 191 103
f 103 224 220
f 103 191 224
f 263 191 323
f 357 298 263
f 224 191 263
f 263 298 224
f 263 323 257
f 257 362 263
f 197 192 263
f 152 357 263
f 362 260 263
f 263 260 197
f 40 139 33
f 33 285 40
f 40 285 139
f 162 139 318
f 139 285 318
f 391 162 318
f 318 285 391
f 2 206 49
f 206 54 49
f 49 235 2
f 49 54 235
f 118 235 375
f 235 54 375
f 375 33 118
f 375 54 33
f 63 243 3
f 3 16 63
f 63 88 243
f 132 88 63
f 63 16 129
f 129 132 63
f 391 2 98
f 98 88 391
f 2 243 98
f 243 88 98
f 248 132 335
f 248 88 132
f 335 247 248
f 248 247 88
f 301 149 73
f 73 255 301
f 301 255 149
f 232 255 225
f 322 255 232
f 232 225 237
f 237 322 232
f 184 48 228
f 228 175 184
f 344 359 221
f 291 359 344
f 344 112 291
f 30 112 34
f 102 136 32
f 32 361 102
f 136 361 32
f 148 361 136
f 148 156 265
f 309 136 356
f 309 144 136
f 85 356 90
f 85 309 356
f 144 309 85
f 302 1 74
f 302 74 274
f 129 16 302
f 16 1 302
f 274 58 302
f 302 132 129
f 58 132 302
f 296 170 214
f 214 170 68
f 214 312 296
f 254 211 35
f 35 262 254
f 254 68 304
f 304 211 254
f 262 214 254
f 254 214 68
f 304 81 38
f 38 211 304
f 81 211 38
f 340 125 7
f 7 236 340
f 340 236 125
f 284 325 267
f 267 379 284
f 284 379 77
f 307 29 352
f 307 325 29
f 352 110 307
f 307 110 267
f 42 122 196
f 122 84 196
f 299 374 70
f 70 127 299
f 70 374 370
f 370 347 70
f 347 127 70
f 104 348 107
f 107 169 104
f 107 317 169
f 104 82 150
f 150 348 104
f 379 348 150
f 77 379 150
f 150 82 77
f 212 246 113
f 246 137 113
f 251 212 113
f 113 137 251
f 330 294 189
f 330 137 294
f 189 293 330
f 330 293 22
f 22 41 330
f 201 41 180
f 41 56 180
f 180 317 201
f 180 56 317
f 142 244 140
f 142 262 244
f 142 214 262
f 140 238 92
f 238 365 92
f 92 142 140
f 365 142 92
f 163 365 351
f 351 27 163
f 326 27 351
f 351 238 326
f 351 365 238
f 65 249 215
f 215 216 65
f 168 249 65
f 65 216 168
f 23 252 124
f 124 256 23
f 23 256 252
f 124 246 47
f 47 256 124
f 246 256 47
f 282 5 369
f 369 247 282
f 350 5 282
f 282 247 350
f 277 388 152
f 152 263 277
f 273 388 277
f 277 192 273
f 277 263 192
f 34 57 4
f 4 30 34
f 57 30 4
f 61 30 57
f 61 57 42
f 8 112 61
f 112 30 61
f 42 305 61
f 61 305 8
f 321 361 75
f 361 148 75
f 75 265 321
f 75 148 265
f 156 148 14
f 14 199 156
f 381 199 14
f 12 381 14
f 34 112 261
f 261 328 34
f 24 85 90
f 328 85 24
f 90 34 24
f 34 328 24
f 204 85 328
f 144 85 204
f 77 325 353
f 353 284 77
f 325 284 353
f 267 325 123
f 123 307 267
f 325 307 123
f 202 84 42
f 42 196 202
f 202 196 84
f 207 107 348
f 207 379 201
f 207 348 379
f 201 317 207
f 317 107 207
f 41 137 383
f 383 330 41
f 137 330 383
f 214 142 287
f 312 214 287
f 287 313 312
f 287 365 313
f 287 142 365
f 96 228 48
f 96 48 145
f 96 145 324
f 146 175 96
f 175 228 96
f 324 146 96
f 177 261 112
f 328 261 177
f 177 344 221
f 112 344 177
f 144 204 366
f 221 87 366
f 366 87 363
f 363 83 366
f 12 14 366
f 366 14 148
f 366 83 12
f 136 144 366
f 366 148 136
f 290 177 221
f 328 177 290
f 290 204 328
f 221 366 290
f 290 366 204

