# https://github.com/mikedh/trimesh
v -0.31802627 -0.36379901 -0.14015000
v -0.30971655 -0.01804608 0.46858498
v -0.38455233 -0.14744632 -0.40732396
v 0.10840540 -0.25407273 -0.49150333
v -0.37644598 -0.34506932 -0.17792748
v -0.31460464 0.33721682 0.18941639
v -0.03056658 -0.37580770 -0.25612369
v -0.28373167 0.19889037 0.40500563
v -0.26767936 0.21961215 0.40363193
v -0.21485546 -0.10387741 -0.52628529
v 0.01264015 -0.32200333 -0.43715614
v -0.40782750 -0.30377862 -0.22834332
v 0.36233702 -0.32266405 0.11382754
v -0.44452050 -0.26888138 0.12382245
v -0.22583611 -0.02530097 0.51154613
v -0.20407428 0.34336010 0.31094643
v -0.23638158 0.32137349 0.34783730
v -0.64912289 0.25106630 -0.03334849
v 0.15525542 0.14137340 0.47774854
v 0.07511130 -0.37299487 -0.26523274
v -0.10934394 0.34312299 0.37598422
v 0.15758087 -0.27701381 0.42268008
v -0.39273176 -0.33228990 0.04657686
v 0.00131375 -0.37572616 -0.26103494
v -0.17422141 -0.28382310 -0.43358222
v 0.06585769 0.35932490 -0.20655629
v -0.33565471 -0.16828263 0.44305843
v 0.13675274 -0.36511558 -0.29170376
v 0.28175974 -0.25524253 0.37845933
v -0.16227792 -0.18829800 -0.51358080
v -0.21151526 -0.37026706 -0.21358891
v -0.19284658 -0.20626026 0.47943884
v 0.02757667 -0.09781384 0.54606700
v -0.35551974 -0.26649624 -0.34310937
v -0.40258729 -0.18413649 -0.38339102
v -0.10788828 0.21544647 0.46101323
v 0.31898573 -0.23440169 0.38378099
v -0.02404588 -0.35707286 0.30688429
v -0.33430883 0.05164381 0.43021223
v -0.54556465 -0.20849535 -0.04361717
v -0.31483540 -0.36462036 -0.08294782
v 0.18695135 0.16377412 0.46211043
v -0.09483827 -0.23332548 -0.49939111
v -0.26775414 0.28527787 0.35391209
v -0.29592624 -0.11616324 0.48099926
v 0.41786423 -0.22591174 -0.30211565
v -0.01159238 -0.03245428 0.54698867
v -0.00901772 -0.26103577 0.47462818
v -0.21592544 -0.36081845 0.25168717
v 0.01829938 -0.06295583 0.55013382
v -0.25159675 -0.36813262 0.08268276
v 0.15295738 -0.36802968 -0.24508475
v 0.19180517 -0.33997941 -0.33856979
v 0.14886869 -0.25028864 -0.47921208
v -0.37878445 0.01498274 0.40161029
v 0.64544886 -0.09453931 -0.03335353
v -0.34546390 -0.14470822 -0.44590434
v 0.01845379 -0.16378307 -0.54146540
v 0.21731845 -0.27920306 -0.42633793
v -0.02918606 -0.03698009 -0.54332852
v -0.32220149 0.22872829 0.34648263
v 0.08939182 -0.12065203 0.53986359
v -0.04402901 0.08223172 0.52570206
v -0.00745057 0.32032222 0.42327651
v -0.20644090 -0.09869155 -0.52543563
v -0.02102474 -0.33041745 0.38739276
v 0.08581111 0.02485978 0.52865243
v -0.35378307 -0.35551059 -0.16810846
v 0.07904328 -0.37285608 -0.26300183
v 0.11806031 -0.33921561 0.32971743
v 0.02457955 -0.37814888 -0.22061586
v 0.23070557 -0.26648885 -0.43108112
v 0.04360184 -0.32784131 0.38201624
v -0.29480344 -0.14960298 -0.47772101
v -0.36969075 -0.14200364 0.42400578
v -0.00644385 -0.06775171 -0.55557209
v -0.09616914 0.34066090 0.39180526
v -0.11046426 0.31865504 0.40679955
v 0.12568824 -0.04384946 0.54238522
v 0.27259094 -0.10502183 -0.47835109
v 0.29249081 -0.32360938 -0.31222844
v 0.33602342 -0.26599938 -0.35253581
v -0.32774243 -0.01595435 0.45550552
v -0.26004282 0.32338184 0.32766214
v -0.17016971 -0.01452320 0.52805126
v -0.26521885 -0.11586377 -0.50295311
v -0.27115634 -0.32890746 -0.33719137
v -0.30795136 -0.26093084 0.35622323
v 0.45195630 -0.19666496 0.25538969
v 0.37338516 -0.29199508 -0.27869698
v 0.29026970 -0.18789041 -0.44442120
v -0.30362108 -0.19601083 -0.44421959
v 0.15666413 -0.34259737 0.30319262
v -0.72479200 0.01142811 -0.02417802
v 0.04193694 -0.13307875 0.53652400
v -0.17095554 -0.32461560 -0.38653123
v -0.14182399 -0.09428208 -0.53892368
v 0.25399354 -0.20919842 -0.45727465
v -0.10831817 -0.09530807 -0.54623139
v -0.10323630 0.19763330 0.47101977
v 0.71942300 0.00266336 -0.01446869
v 0.23678182 -0.23008665 -0.45595464
v 0.34289527 -0.19512583 -0.40693220
v 0.13189666 -0.18976647 0.51368397
v -0.25280109 -0.34759787 -0.31084636
v 0.31734455 -0.31491691 -0.30965856
v -0.24175836 -0.20685838 -0.47791204
v 0.33784148 -0.04770928 0.44863665
v -0.19625483 -0.12473935 0.51366550
v 0.01402536 -0.28145868 0.45626816
v -0.33279583 -0.30883229 0.25949362
v -0.05651546 0.43855420 0.06921729
v -0.20072936 -0.13178281 -0.52739471
v 0.19563992 -0.08792816 0.51678413
v 0.45799133 -0.26881424 0.04859867
v -0.02306586 -0.31703544 0.40896353
v -0.28223747 0.23278284 0.38546774
v 0.19735344 0.07098766 0.48832324
v -0.43548986 -0.28411114 -0.22007620
v 0.10863440 -0.37281588 -0.22921418
v 0.20283093 -0.01506023 0.51469028
v 0.07629441 -0.20779440 0.51152688
v -0.44339055 -0.19960238 0.29450512
v -0.10383442 -0.18414764 0.50905824
v 0.44230899 -0.18654159 0.28261366
v -0.02439199 -0.05700020 0.54580390
v 0.31609574 -0.16671292 0.43620384
v -0.30250794 -0.28942817 -0.36421731
v 0.38091400 -0.16144477 0.39616349
v -0.19441886 -0.35075006 0.28549522
v 0.12370037 -0.35229006 -0.34476385
v -0.10642714 -0.34595051 0.33770189
v 0.05359045 0.33719924 0.39577749
v 0.39610469 -0.23189470 -0.32616153
v -0.52824914 -0.15766050 0.18521720
v 0.28886881 0.14652407 0.41372508
v -0.01353836 -0.14178915 -0.55081046
v -0.33983433 -0.23205891 -0.39359704
v -0.10408392 -0.37717518 -0.05780190
v 0.12158105 -0.09519668 -0.54922616
v -0.46347728 -0.21464993 0.23654680
v 0.25122258 -0.32243910 -0.34645018
v -0.44928780 -0.24179815 -0.27053857
v -0.40263060 -0.19292906 -0.37816605
v 0.16875471 -0.28478128 -0.43859485
v 0.35445124 -0.33741271 -0.08727740
v 0.15199153 0.34526056 -0.24925350
v -0.05355491 -0.35181120 0.33253819
v -0.04932714 -0.24758229 -0.49513796
v -0.44510397 -0.20813911 0.28093883
v 0.34404472 -0.30421749 0.24472247
v -0.22753638 -0.15979978 0.49565718
v 0.32711345 -0.29159033 -0.33014849
v 0.16083278 0.07398847 0.50019687
v 0.29377797 -0.35678801 -0.02410359
v -0.23530386 -0.12198950 -0.52257848
v -0.15064727 -0.12218805 0.52589983
v -0.39520389 -0.24418791 -0.33004317
v -0.17351876 -0.37638697 -0.07718295
v 0.24461606 -0.35304826 -0.26660445
v -0.04796351 -0.34930745 -0.37160647
v -0.29895839 -0.29991037 0.30718341
v -0.42519531 -0.06321019 0.36564392
v -0.09195210 -0.31833875 0.40769693
v -0.08396501 -0.22801289 0.49467295
v 0.37362102 -0.27237865 -0.30530962
v -0.03002279 0.28575113 0.44210026
v -0.48412564 -0.12237200 0.29738554
v 0.24007946 -0.30436531 0.33158618
v -0.01622164 -0.28137672 -0.47441196
v -0.03046599 -0.35971346 0.27776793
v 0.07808341 -0.15212829 -0.54284847
v -0.12924437 -0.37780789 -0.07726754
v -0.42325085 -0.23446630 -0.30951175
v -0.35098734 -0.30593437 0.24360995
v 0.03797253 -0.08937013 0.54734027
v -0.38083503 -0.19684607 0.36452296
v -0.29174808 0.33050475 0.25886166
v -0.37305841 -0.27960065 0.26306388
v 0.07854558 -0.35766754 0.27476320
v 0.68937105 -0.03863455 -0.03106691
v 0.05206192 -0.37818891 -0.17876135
v -0.62606788 -0.12179047 -0.05540214
v -0.28613669 -0.35869244 0.16158299
v 0.14271687 -0.34666163 0.29756448
v 0.28687984 -0.07677129 -0.47400251
v -0.36534050 -0.29552197 0.24811037
v 0.15936953 -0.14890298 0.52108800
v 0.07389025 0.32942113 0.40277225
v 0.19274122 -0.36163676 -0.27019700
v -0.47339109 -0.25147322 -0.19407053
v -0.22076157 0.15542394 0.46142033
v -0.21781425 0.32474402 0.35459253
v -0.40451190 -0.28156048 -0.27183601
v -0.41300815 -0.18147925 -0.37430012
v -0.42905876 -0.20407701 -0.33521074
v 0.01083118 -0.31892982 0.40410647
v 0.20705323 -0.35622245 -0.29209402
v -0.23495917 -0.33898729 -0.34164473
v -0.28089920 -0.19863537 0.45930550
v -0.37881735 -0.04104537 0.41845679
v 0.05970517 -0.35640627 0.30000761
v -0.00440201 -0.35093954 0.33214077
v -0.40932444 -0.26294217 -0.29084066
v 0.21612041 -0.26164931 0.41611746
v 0.22952163 -0.19656140 0.45953825
v 0.34940192 -0.34069476 -0.07927096
v -0.70990288 -0.03112540 -0.02073326
v 0.04337399 -0.37688994 -0.07824998
v -0.47378448 -0.09346429 0.30919105
v -0.67437452 -0.07112285 -0.00238098
v -0.27792385 -0.35619017 0.20207162
v -0.43453956 -0.29195800 -0.19935864
v 0.05613220 -0.31972399 -0.42501846
v 0.90097165 0.32331583 -0.00632701
v 0.21233813 -0.27138191 -0.43534687
v -0.11288534 -0.09993674 -0.54590362
v -0.32147810 -0.30574846 -0.32704964
v 0.13710386 -0.35611928 0.25503665
v 0.28479716 -0.11176188 -0.47088006
v -0.21680641 -0.18459597 -0.50076038
v -0.30820453 -0.29386589 -0.35449743
v 0.23591027 -0.34739253 -0.29624888
v -0.49592015 -0.13406236 0.27456877
v -0.54589736 -0.16035838 0.14604202
v -0.01316749 -0.08168235 -0.55629879
v -0.42410713 -0.21643105 -0.32883987
v -0.15339246 -0.29960909 0.42398223
v -0.14976288 -0.36157390 -0.30839571
v -0.07527164 -0.34866741 0.33686629
v -0.37560129 -0.32088953 -0.24517573
v 0.36228845 -0.30218685 0.22303437
v -0.27761552 -0.11155705 0.48969242
v 0.47332981 -0.20598668 0.20311588
v 0.40872502 -0.12978950 -0.36340258
v -0.31860217 -0.36391017 -0.08170526
v 0.25551936 0.32622486 0.33230159
v -0.34344965 -0.28572291 -0.33300170
v -0.40872392 -0.09256302 0.38538444
v -0.28766960 -0.29776019 -0.36323264
v 0.33692729 -0.31436002 -0.28345844
v 0.35806412 -0.10302542 -0.42604247
v -0.28563616 -0.27932119 0.35279813
v -0.47479460 -0.13222912 0.30262366
v 0.30839658 -0.32759714 0.22774644
v -0.21523355 -0.22537690 0.46342063
v -0.18994604 0.32649866 0.36530578
v -0.34820712 -0.00416550 0.43683055
v -0.15857825 -0.26557562 -0.45864978
v -0.45042464 -0.27201334 0.09900615
v 0.02534121 0.46682993 0.01400446
v -0.20420147 -0.36535922 0.22660892
v 0.63823748 -0.10677680 -0.02202049
v 0.46548215 -0.25685164 0.11773778
v 0.16616651 -0.33240733 0.32494986
v 0.23576178 -0.35587969 -0.26174888
v -0.32231298 -0.28095588 -0.35678861
v -0.27910894 -0.23103878 0.42060015
v 0.71076894 0.00777325 -0.04942117
v 0.17569172 0.34327200 0.35732320
v -0.35098636 -0.35841045 -0.15598337
v 0.32777324 -0.33271372 0.19953142
v -0.23210290 -0.37089220 0.09038863
v 0.18366608 -0.27373752 0.41841757
v 0.18206741 -0.29175001 0.39009568
v -0.53295100 -0.19582157 0.09222096
v 0.36147007 -0.30537966 -0.27068090
v -0.17276709 0.29943231 0.40165338
v 0.06427407 -0.25275081 0.47306535
v -0.42263001 -0.24164240 0.25791457
v 0.34401381 -0.13575327 0.44265482
v -0.27719170 -0.30903944 -0.35642385
v -0.12628497 0.29811147 0.41401705
v -0.46179432 -0.23341134 -0.26202393
v -0.14754200 -0.06898251 0.53220123
v 0.03879947 0.25907823 0.45627305
v 0.39894938 -0.25268537 0.26243439
v -0.03146276 -0.17959462 -0.53512037
v -0.23661007 0.32725289 0.33723882
v -0.46556011 -0.22330710 -0.26387754
v -0.41686502 -0.31791809 -0.17509313
v -0.35564390 -0.29571274 -0.30631912
v -0.04208943 -0.26144359 0.47597548
v -0.00659612 -0.23601544 0.49502864
v 0.14334865 -0.36582702 -0.28349504
v 0.01907767 0.08400638 0.52192724
v -0.27969220 -0.35864094 -0.25188506
v -0.29610935 0.24045703 0.36824927
v 0.29741904 -0.32648605 -0.29894641
v -0.10000533 -0.11648905 -0.54727364
v -0.22586073 -0.22089076 -0.47432593
v -0.34237993 -0.34136653 -0.23389630
v 0.22048807 -0.35823900 -0.26241389
v -0.46170989 -0.23500876 -0.25942984
v -0.00294044 0.34375659 0.39326477
v 0.20351982 -0.18606400 -0.49176458
v 0.02097229 -0.06461027 -0.55404359
v 0.11538541 -0.04993508 -0.53599602
v 0.11303346 -0.25416344 -0.49006441
v -0.11090411 -0.14826533 -0.54094297
v -0.28846803 -0.31192553 -0.34771100
v 0.14709182 -0.26388893 0.44282615
v 0.31749639 0.03392750 0.44046167
v 0.13042551 -0.25365779 -0.48447350
v 0.24982587 -0.08218588 0.49828580
v -0.19384061 -0.33135942 -0.36810651
v 0.90137863 0.32134154 -0.00389799
v -0.23788248 -0.33286861 -0.35021290
v 0.04982409 -0.21184275 0.51043713
v -0.36794999 -0.25799286 0.29879871
v 0.16561548 -0.37452847 -0.13538378
v 0.02976244 -0.35488203 -0.36377874
v -0.29521188 -0.17050940 0.47024003
v -0.16205977 -0.19519718 0.49308702
v 0.38317475 -0.30443659 0.18423986
v 0.22736435 -0.35195217 0.16110952
v -0.29316363 -0.33814368 0.24449891
v 0.13224332 -0.15761177 -0.53485268
v 0.13660133 -0.12631802 -0.53962106
v -0.31647936 -0.35416836 0.16680266
f 18 57 94
f 108 271 307
f 101 259 307
f 237 42 307
f 307 260 237
f 237 260 42
f 303 108 307
f 31 7 159
f 307 271 129
f 253 101 234
f 84 18 288
f 192 8 39
f 288 8 117
f 192 268 9
f 9 8 192
f 268 117 9
f 9 117 8
f 210 163 94
f 85 63 192
f 85 47 63
f 50 176 79
f 79 47 50
f 63 47 79
f 192 63 100
f 215 260 307
f 215 251 260
f 186 298 215
f 215 242 186
f 215 235 242
f 134 235 215
f 307 259 215
f 147 215 298
f 251 215 147
f 307 42 136
f 136 303 307
f 42 303 136
f 316 155 262
f 262 315 232
f 232 151 262
f 281 183 191
f 40 183 281
f 281 23 40
f 320 23 261
f 320 252 49
f 94 57 3
f 94 3 195
f 195 3 57
f 12 231 281
f 31 159 1
f 259 101 181
f 181 101 253
f 253 56 181
f 37 129 271
f 89 101 307
f 89 234 101
f 112 251 18
f 77 251 112
f 6 112 18
f 247 268 77
f 61 8 288
f 288 18 61
f 17 117 268
f 83 39 248
f 313 27 200
f 45 27 313
f 15 85 192
f 47 85 275
f 275 15 109
f 85 15 275
f 108 303 121
f 75 27 45
f 75 123 27
f 208 224 94
f 94 195 208
f 208 191 183
f 250 141 266
f 266 40 250
f 250 40 23
f 67 79 154
f 154 121 42
f 79 121 154
f 167 100 63
f 63 276 167
f 42 260 189
f 189 276 42
f 60 147 298
f 18 251 26
f 251 147 26
f 26 60 18
f 147 60 26
f 57 18 86
f 86 156 57
f 99 60 76
f 252 139 209
f 182 311 209
f 253 234 254
f 254 115 253
f 254 315 115
f 315 262 13
f 115 315 13
f 212 49 317
f 317 320 212
f 212 320 49
f 317 162 111
f 34 158 144
f 158 34 238
f 92 144 57
f 57 156 74
f 156 107 74
f 74 92 57
f 107 92 74
f 221 156 30
f 221 107 156
f 57 144 35
f 35 195 57
f 144 195 35
f 119 12 281
f 199 161 229
f 229 105 199
f 229 7 31
f 41 1 159
f 261 1 41
f 186 242 220
f 103 235 134
f 242 235 103
f 98 103 102
f 307 129 125
f 125 89 307
f 18 84 178
f 178 6 18
f 84 16 178
f 112 6 178
f 178 16 112
f 55 39 8
f 8 61 55
f 55 61 18
f 55 18 94
f 55 248 39
f 44 17 84
f 117 17 44
f 44 84 288
f 288 117 44
f 193 247 77
f 268 247 193
f 193 17 268
f 45 313 233
f 109 15 233
f 233 15 45
f 109 233 152
f 152 233 313
f 152 313 200
f 2 15 192
f 2 39 83
f 192 39 2
f 83 45 2
f 45 15 2
f 50 275 157
f 157 275 109
f 109 152 157
f 50 47 126
f 126 275 50
f 47 275 126
f 127 37 271
f 118 303 42
f 42 121 118
f 118 121 303
f 104 127 271
f 228 258 243
f 317 49 228
f 200 258 228
f 228 162 317
f 243 162 228
f 27 123 177
f 200 27 177
f 163 210 239
f 224 123 244
f 123 75 244
f 266 141 225
f 274 208 280
f 294 208 274
f 191 208 294
f 294 119 191
f 274 143 294
f 143 119 294
f 23 320 187
f 187 250 23
f 187 162 243
f 187 111 162
f 42 276 19
f 19 154 42
f 67 154 286
f 286 19 276
f 154 19 286
f 286 276 63
f 63 79 286
f 286 79 67
f 36 167 273
f 100 167 36
f 36 273 268
f 36 268 192
f 192 100 36
f 273 167 78
f 77 268 78
f 268 273 78
f 260 251 295
f 295 251 77
f 64 167 276
f 276 189 64
f 64 295 77
f 77 78 64
f 64 78 167
f 76 60 297
f 297 60 298
f 30 156 113
f 10 86 18
f 156 86 10
f 263 139 252
f 263 41 159
f 155 311 256
f 115 13 207
f 155 256 207
f 207 262 155
f 207 13 262
f 253 115 146
f 146 267 253
f 115 207 146
f 90 56 253
f 253 267 90
f 90 267 106
f 196 143 274
f 196 195 144
f 274 280 196
f 196 208 195
f 196 280 208
f 144 158 227
f 227 196 144
f 143 196 227
f 231 12 194
f 12 119 194
f 194 119 143
f 218 238 222
f 257 238 34
f 257 222 238
f 128 222 257
f 149 278 4
f 170 149 4
f 25 249 11
f 11 249 170
f 11 170 4
f 11 145 214
f 4 145 11
f 291 128 107
f 291 249 25
f 291 221 30
f 107 221 291
f 281 191 213
f 213 119 281
f 191 119 213
f 236 320 261
f 261 41 236
f 236 41 320
f 318 4 172
f 91 103 98
f 91 220 242
f 242 103 91
f 82 103 134
f 30 113 300
f 89 125 277
f 129 37 277
f 277 125 129
f 277 151 232
f 277 37 151
f 232 315 277
f 234 89 277
f 277 254 234
f 315 254 277
f 77 112 21
f 112 16 21
f 246 152 200
f 200 228 246
f 33 176 50
f 50 157 33
f 165 157 152
f 165 246 228
f 108 121 305
f 305 121 79
f 79 114 305
f 271 108 305
f 188 114 79
f 188 305 114
f 188 104 271
f 271 305 188
f 37 127 206
f 127 104 206
f 88 258 200
f 200 177 88
f 243 258 88
f 75 239 168
f 168 244 75
f 168 239 210
f 224 244 168
f 94 224 168
f 168 210 94
f 224 208 135
f 208 225 135
f 135 123 224
f 150 123 135
f 135 141 150
f 135 225 141
f 211 225 208
f 266 225 211
f 183 40 211
f 211 208 183
f 211 40 266
f 141 250 14
f 14 187 141
f 250 187 14
f 150 141 270
f 141 187 270
f 175 320 317
f 175 187 320
f 317 111 175
f 111 187 175
f 150 270 179
f 179 270 187
f 179 187 243
f 243 88 179
f 133 189 260
f 260 295 133
f 133 64 189
f 295 64 133
f 60 99 97
f 97 10 60
f 99 10 97
f 18 60 65
f 65 10 18
f 60 10 65
f 173 263 159
f 139 263 173
f 173 159 7
f 182 209 173
f 173 209 139
f 320 41 51
f 51 263 320
f 41 263 51
f 252 320 184
f 184 263 252
f 320 263 184
f 71 311 182
f 71 20 311
f 182 173 71
f 71 173 7
f 56 90 46
f 46 181 56
f 134 215 46
f 46 215 259
f 259 181 46
f 231 292 5
f 281 231 5
f 5 23 281
f 5 68 261
f 261 23 5
f 287 292 105
f 68 5 287
f 287 5 292
f 261 68 287
f 287 229 31
f 105 229 287
f 31 1 287
f 287 1 261
f 158 143 174
f 174 227 158
f 143 227 174
f 231 194 282
f 282 194 238
f 218 231 282
f 282 238 218
f 158 238 204
f 238 194 204
f 204 143 158
f 204 194 143
f 128 257 138
f 138 34 144
f 138 257 34
f 144 92 138
f 107 128 138
f 138 92 107
f 278 149 43
f 43 291 30
f 249 291 43
f 149 170 43
f 170 249 43
f 30 300 43
f 43 300 278
f 128 291 240
f 240 291 25
f 25 11 96
f 96 308 25
f 96 11 161
f 98 102 296
f 102 318 296
f 296 318 220
f 296 91 98
f 220 91 296
f 140 298 186
f 140 297 298
f 140 318 172
f 304 216 59
f 59 145 304
f 106 59 153
f 166 82 134
f 134 46 166
f 166 46 90
f 166 153 82
f 166 90 106
f 106 153 166
f 156 10 217
f 217 10 99
f 290 113 156
f 290 300 113
f 156 217 290
f 278 300 137
f 300 290 137
f 137 140 172
f 279 21 16
f 279 16 84
f 279 193 77
f 77 21 279
f 84 17 279
f 17 193 279
f 284 110 309
f 309 165 284
f 314 165 152
f 284 165 283
f 283 165 228
f 201 239 75
f 163 239 201
f 201 75 45
f 201 45 83
f 83 248 201
f 248 55 201
f 94 163 201
f 201 55 94
f 310 123 150
f 150 179 310
f 310 177 123
f 310 88 177
f 310 179 88
f 24 71 7
f 20 71 24
f 7 229 24
f 198 256 190
f 190 285 198
f 160 207 256
f 223 289 160
f 160 256 198
f 198 223 160
f 142 145 59
f 214 145 142
f 142 59 106
f 142 223 198
f 25 308 272
f 272 240 25
f 199 308 306
f 308 96 306
f 306 161 199
f 306 96 161
f 318 140 319
f 54 318 102
f 54 304 318
f 216 304 54
f 299 145 4
f 299 304 145
f 4 318 299
f 318 304 299
f 103 82 72
f 72 102 103
f 72 153 59
f 82 153 72
f 59 216 72
f 72 54 102
f 216 54 72
f 58 137 172
f 278 137 58
f 172 4 58
f 4 278 58
f 226 137 290
f 226 290 217
f 140 137 226
f 226 99 76
f 226 217 99
f 76 297 226
f 297 140 226
f 104 188 62
f 176 33 62
f 62 79 176
f 62 188 79
f 157 165 124
f 165 309 124
f 246 165 32
f 165 314 32
f 152 246 32
f 32 314 152
f 48 110 284
f 284 283 48
f 48 283 110
f 110 22 302
f 302 269 110
f 245 262 151
f 151 37 169
f 169 245 151
f 316 262 219
f 219 155 316
f 219 311 155
f 20 285 69
f 311 20 69
f 69 120 311
f 198 285 28
f 28 285 20
f 293 190 256
f 293 256 311
f 311 190 293
f 52 190 311
f 285 190 52
f 311 120 52
f 120 69 52
f 52 69 285
f 241 146 207
f 207 160 241
f 267 146 241
f 241 160 289
f 106 267 241
f 241 289 106
f 53 142 198
f 106 289 81
f 81 142 106
f 81 289 223
f 223 142 81
f 199 105 87
f 87 308 199
f 87 231 218
f 87 292 231
f 105 292 87
f 220 318 80
f 318 319 80
f 186 220 80
f 80 140 186
f 80 319 140
f 104 62 122
f 122 302 104
f 269 302 122
f 122 309 110
f 110 269 122
f 95 62 33
f 95 124 309
f 309 122 95
f 95 122 62
f 95 33 157
f 157 124 95
f 104 302 205
f 37 206 205
f 205 206 104
f 130 228 49
f 49 132 130
f 130 132 228
f 164 283 228
f 110 283 164
f 228 132 164
f 73 66 203
f 180 209 311
f 311 219 180
f 198 28 131
f 131 53 198
f 131 11 214
f 214 142 131
f 142 53 131
f 301 272 308
f 308 87 301
f 128 240 301
f 240 272 301
f 301 222 128
f 218 222 301
f 301 87 218
f 29 169 37
f 37 205 29
f 29 205 169
f 22 73 265
f 110 164 116
f 116 164 66
f 262 245 255
f 255 93 262
f 245 169 255
f 169 265 255
f 255 265 73
f 185 219 262
f 262 93 185
f 252 209 171
f 209 180 171
f 148 132 49
f 66 164 148
f 203 66 148
f 312 131 28
f 312 28 20
f 20 24 312
f 161 11 312
f 11 131 312
f 312 229 161
f 312 24 229
f 169 205 264
f 264 265 169
f 22 265 264
f 264 302 22
f 264 205 302
f 66 73 197
f 197 116 66
f 110 116 197
f 197 22 110
f 197 73 22
f 70 255 73
f 93 255 70
f 70 185 93
f 202 171 180
f 185 70 202
f 202 180 219
f 219 185 202
f 202 73 203
f 202 70 73
f 230 164 132
f 132 148 230
f 230 148 164
f 171 202 38
f 252 171 38
f 203 148 38
f 38 202 203
f 49 252 38
f 38 148 49

